<svg width="34" height="34" viewBox="0 0 34 34" fill="none" xmlns="http://www.w3.org/2000/svg">
<path d="M11.0392 29.6873L1.47668 32.4998L4.28918 22.9373L25.5674 1.65905C25.7764 1.45011 26.0244 1.28436 26.2974 1.17128C26.5704 1.0582 26.863 1 27.1585 1C27.4539 1 27.7465 1.0582 28.0195 1.17128C28.2925 1.28436 28.5406 1.45011 28.7495 1.65905L32.3174 5.22699C32.5264 5.43592 32.6921 5.68396 32.8052 5.95696C32.9183 6.22995 32.9765 6.52254 32.9765 6.81802C32.9765 7.1135 32.9183 7.40609 32.8052 7.67908C32.6921 7.95207 32.5264 8.20012 32.3174 8.40905L11.0392 29.6873Z" stroke="#212121" stroke-width="2" stroke-miterlimit="10" stroke-linecap="square"/>
</svg>
