<svg width="92" height="26" viewBox="0 0 92 26" fill="none" xmlns="http://www.w3.org/2000/svg">
<path d="M7.13602 25.6C5.77068 25.6 4.54402 25.376 3.45602 24.928C2.38935 24.48 1.54668 23.8187 0.928017 22.944C0.30935 22.048 1.71661e-05 20.928 1.71661e-05 19.584C1.71661e-05 18.7733 0.0960172 17.7173 0.288017 16.416C0.501351 15.1147 0.757351 13.6853 1.05602 12.128C1.35468 10.5493 1.64268 8.94932 1.92002 7.32799L0.224017 3.90399C1.41868 3.22132 2.56002 2.66665 3.64802 2.23999C4.75735 1.81332 5.92002 1.59999 7.13602 1.59999C7.64802 1.59999 8.07468 1.68532 8.41602 1.85599C8.75735 2.02665 9.03468 2.26132 9.24802 2.55999C10.1654 2.23999 11.0294 2.00532 11.84 1.85599C12.6507 1.70665 13.4187 1.63199 14.144 1.63199C16.0854 1.63199 17.7067 2.06932 19.008 2.94399C20.3094 3.81865 21.28 4.97065 21.92 6.39999C22.5814 7.82932 22.912 9.38665 22.912 11.072C22.912 12.416 22.6987 13.7707 22.272 15.136C21.8667 16.5013 21.2374 17.8133 20.384 19.072C19.552 20.3307 18.5067 21.4507 17.248 22.432C15.9894 23.4133 14.5174 24.192 12.832 24.768C11.1467 25.3227 9.24802 25.6 7.13602 25.6ZM8.28802 20.928C9.90935 20.928 11.264 20.5227 12.352 19.712C13.4614 18.9013 14.2934 17.8347 14.848 16.512C15.4027 15.1893 15.68 13.76 15.68 12.224C15.68 10.304 15.2427 8.74665 14.368 7.55199C13.4934 6.33599 12.192 5.72799 10.464 5.72799C10.272 5.72799 10.0694 5.73865 9.85602 5.75999C9.64268 5.78132 9.41868 5.81332 9.18402 5.85599C9.05602 6.70932 8.88535 7.77599 8.67202 9.05599C8.48002 10.336 8.25602 11.7013 8.00002 13.152C7.76535 14.5813 7.53068 15.9787 7.29602 17.344C7.08268 18.688 6.91202 19.84 6.78402 20.8C7.04002 20.8427 7.29602 20.8747 7.55202 20.896C7.80802 20.9173 8.05335 20.928 8.28802 20.928ZM30.0598 25.6C28.7371 25.6 27.7024 25.3653 26.9558 24.896C26.2304 24.448 25.7184 23.84 25.4198 23.072C25.1424 22.2827 25.0038 21.3973 25.0038 20.416C25.0038 19.2853 25.1211 18.1013 25.3558 16.864C25.5904 15.6053 25.8251 14.3893 26.0598 13.216C26.2944 12.0213 26.4118 10.976 26.4118 10.08C26.4118 8.75732 26.1878 7.78665 25.7398 7.16799C26.6144 6.69865 27.5211 6.32532 28.4598 6.04799C29.4198 5.74932 30.1878 5.59999 30.7638 5.59999C31.6384 5.59999 32.2678 5.78132 32.6518 6.14399C33.0571 6.48532 33.2598 7.06132 33.2598 7.87199C33.2598 8.31999 33.1958 8.93865 33.0678 9.72799C32.9398 10.496 32.7798 11.3387 32.5878 12.256C32.3958 13.1733 32.1931 14.1013 31.9798 15.04C31.7878 15.9573 31.6278 16.7893 31.4998 17.536C31.3718 18.2827 31.3078 18.8693 31.3078 19.296C31.3078 20.0853 31.5104 20.6827 31.9158 21.088C32.3424 21.4933 32.8544 21.696 33.4518 21.696C34.1344 21.696 34.8491 21.44 35.5958 20.928C36.3424 20.416 36.9611 19.6693 37.4518 18.688C37.5371 18.2187 37.6438 17.632 37.7718 16.928C37.9211 16.224 38.0811 15.4773 38.2518 14.688C38.4438 13.8773 38.6144 13.1093 38.7638 12.384C38.9344 11.6373 39.0838 11.008 39.2118 10.496L37.2918 7.93599C38.2091 7.27465 39.1904 6.71999 40.2358 6.27199C41.2811 5.82399 42.3478 5.59999 43.4358 5.59999C44.3958 5.59999 45.0784 5.78132 45.4838 6.14399C45.9104 6.48532 46.1238 7.06132 46.1238 7.87199C46.1238 8.31999 46.0384 8.93865 45.8678 9.72799C45.7184 10.5173 45.5264 11.4027 45.2918 12.384C45.0784 13.344 44.8544 14.3467 44.6198 15.392C44.3851 16.4373 44.1824 17.4613 44.0118 18.464C43.8624 19.4453 43.7878 20.3307 43.7878 21.12C43.7878 21.76 43.8624 22.336 44.0118 22.848C44.1824 23.3387 44.4384 23.7333 44.7798 24.032C43.5851 25.0773 42.3158 25.6 40.9718 25.6C39.6064 25.6 38.6571 25.2907 38.1238 24.672C37.5904 24.0533 37.3238 23.3173 37.3238 22.464L37.0038 22.304C36.2998 23.3493 35.3184 24.16 34.0598 24.736C32.8011 25.312 31.4678 25.6 30.0598 25.6ZM53.0573 25.6C51.7559 25.6 50.8279 25.1947 50.2733 24.384C49.7186 23.5733 49.4413 22.336 49.4413 20.672C49.4413 20.2027 49.4946 19.5093 49.6013 18.592C49.7293 17.6747 49.8893 16.6293 50.0813 15.456C50.2733 14.2827 50.4866 13.0667 50.7213 11.808C50.9559 10.528 51.1799 9.29065 51.3933 8.09599C51.6066 6.90132 51.7986 5.83465 51.9693 4.89599L50.1773 2.33599C51.3079 1.67465 52.3853 1.11999 53.4093 0.671988C54.4333 0.223987 55.4573 -1.33514e-05 56.4813 -1.33514e-05C57.3773 -1.33514e-05 57.9959 0.18132 58.3373 0.543987C58.6999 0.88532 58.8813 1.46132 58.8813 2.27199C58.8813 2.97599 58.7959 3.83999 58.6253 4.86399C58.4546 5.88799 58.2413 7.01865 57.9853 8.25599C57.7293 9.47199 57.4626 10.7307 57.1853 12.032C56.9079 13.312 56.6733 14.56 56.4813 15.776L58.4973 13.984C59.2653 13.3013 59.9693 12.672 60.6093 12.096C61.2706 11.52 61.7933 10.944 62.1773 10.368C62.5826 9.77065 62.7853 9.13065 62.7853 8.44799C62.7853 8.14932 62.7639 7.88265 62.7213 7.64799C62.6786 7.41332 62.6146 7.18932 62.5293 6.97599C64.0439 6.05865 65.4733 5.59999 66.8173 5.59999C67.7133 5.59999 68.4279 5.88799 68.9613 6.46399C69.4946 7.01865 69.7613 7.75465 69.7613 8.67199C69.7613 9.54665 69.5053 10.3787 68.9933 11.168C68.5026 11.9573 67.8626 12.672 67.0733 13.312C66.3053 13.9307 65.5159 14.4747 64.7053 14.944C65.1746 16.4373 65.7186 17.856 66.3373 19.2C66.9773 20.544 67.6173 21.6747 68.2573 22.592C68.8973 23.488 69.4413 24.0533 69.8893 24.288C69.4626 24.736 68.8653 25.0667 68.0973 25.28C67.3293 25.4933 66.6039 25.6 65.9213 25.6C64.5986 25.6 63.4893 25.152 62.5933 24.256C61.6973 23.36 60.8866 21.888 60.1613 19.84L59.3613 17.568L56.0653 19.2C56.0439 19.3707 56.0333 19.552 56.0333 19.744C56.0333 19.9147 56.0333 20.0853 56.0333 20.256C56.0333 21.088 56.1079 21.8347 56.2573 22.496C56.4279 23.136 56.6839 23.648 57.0253 24.032C55.5319 25.0773 54.2093 25.6 53.0573 25.6ZM77.1565 25.6C75.9619 25.6 74.9059 25.2907 73.9885 24.672C73.0925 24.0533 72.3992 23.1787 71.9085 22.048C71.4179 20.9173 71.1725 19.5947 71.1725 18.08C71.1725 16.3093 71.4819 14.6667 72.1005 13.152C72.7405 11.6373 73.6152 10.3147 74.7245 9.18399C75.8552 8.05332 77.1779 7.17865 78.6925 6.55999C80.2072 5.91999 81.8499 5.59999 83.6205 5.59999C84.1325 5.59999 84.5699 5.62132 84.9325 5.66399C85.3165 5.68532 85.7219 5.74932 86.1485 5.85599C86.2765 6.45332 86.3512 6.97599 86.3725 7.42399C86.8632 7.10399 87.4072 6.85865 88.0045 6.68799C88.6019 6.49599 89.1565 6.39999 89.6685 6.39999C91.2259 6.39999 92.0045 7.24265 92.0045 8.92799C92.0045 9.48265 91.8979 10.24 91.6845 11.2C91.4925 12.1387 91.2579 13.184 90.9805 14.336C90.7245 15.4667 90.4899 16.6293 90.2765 17.824C90.0845 18.9973 89.9885 20.096 89.9885 21.12C89.9885 22.5067 90.3192 23.4773 90.9805 24.032C89.7859 25.0773 88.5165 25.6 87.1725 25.6C85.9352 25.6 85.0179 25.216 84.4205 24.448C83.8445 23.68 83.5565 22.4853 83.5565 20.864L83.2365 20.704C82.6605 22.24 81.8285 23.4453 80.7405 24.32C79.6739 25.1733 78.4792 25.6 77.1565 25.6ZM79.6845 19.776C80.5165 19.776 81.3272 19.4773 82.1165 18.88C82.9059 18.2827 83.5672 17.4613 84.1005 16.416C84.1859 15.584 84.2712 14.8053 84.3565 14.08C84.4632 13.3333 84.5912 12.544 84.7405 11.712C84.9112 10.88 85.1139 9.89865 85.3485 8.76799C84.2605 8.76799 83.2259 8.98132 82.2445 9.40799C81.2845 9.81332 80.4205 10.3787 79.6525 11.104C78.8845 11.8293 78.2765 12.6613 77.8285 13.6C77.4019 14.5173 77.1885 15.488 77.1885 16.512C77.1885 17.5573 77.4019 18.368 77.8285 18.944C78.2765 19.4987 78.8952 19.776 79.6845 19.776Z" fill="#3C3939"/>
</svg>
