<svg width="33" height="35" viewBox="0 0 33 35" fill="none" xmlns="http://www.w3.org/2000/svg">
<path d="M30.1696 27.4375C30.1696 27.4375 26.2321 22.375 26.2321 17.875V11.125C26.2321 8.43968 25.1654 5.86435 23.2666 3.96554C21.3678 2.06674 18.7925 1 16.1071 1C13.4218 1 10.8465 2.06674 8.94769 3.96554C7.04889 5.86435 5.98215 8.43968 5.98215 11.125V17.875C5.98215 22.375 2.04465 27.4375 2.04465 27.4375H30.1696Z" stroke="#212121" stroke-width="2" stroke-miterlimit="10" stroke-linecap="square"/>
<path d="M19.4821 30.25C19.4821 31.1451 19.1266 32.0036 18.4936 32.6365C17.8607 33.2694 17.0023 33.625 16.1071 33.625C15.212 33.625 14.3536 33.2694 13.7207 32.6365C13.0877 32.0036 12.7321 31.1451 12.7321 30.25" stroke="#212121" stroke-width="2" stroke-miterlimit="10" stroke-linecap="square"/>
</svg>
