<svg width="36" height="36" viewBox="0 0 36 36" fill="none" xmlns="http://www.w3.org/2000/svg">
<g clip-path="url(#clip0_9_208)">
<path d="M33.1436 20.844C33.1728 20.4622 33.1875 20.0767 33.1875 19.6875C33.1872 16.2424 32.0157 12.8997 29.8653 10.2082C27.7148 7.51674 24.7131 5.63635 21.353 4.87575" stroke="#3C3939" stroke-width="2" stroke-miterlimit="10" stroke-linecap="square"/>
<path d="M18 7.875C19.864 7.875 21.375 6.36396 21.375 4.5C21.375 2.63604 19.864 1.125 18 1.125C16.136 1.125 14.625 2.63604 14.625 4.5C14.625 6.36396 16.136 7.875 18 7.875Z" stroke="#3C3939" stroke-width="2" stroke-miterlimit="10" stroke-linecap="square"/>
<path d="M11.4266 6.01031C8.14423 7.5864 5.53733 10.2893 4.08091 13.6265C2.62448 16.9637 2.41548 20.713 3.49198 24.1914" stroke="#3C3939" stroke-width="2" stroke-miterlimit="10" stroke-linecap="square"/>
<path d="M18 7.875C19.864 7.875 21.375 6.36396 21.375 4.5C21.375 2.63604 19.864 1.125 18 1.125C16.136 1.125 14.625 2.63604 14.625 4.5C14.625 6.36396 16.136 7.875 18 7.875Z" stroke="#3C3939" stroke-width="2" stroke-miterlimit="10" stroke-linecap="square"/>
<path d="M9.43762 32.2245C12.4436 34.2815 16.0892 35.1882 19.7085 34.779C23.3278 34.3698 26.6791 32.672 29.1499 29.9959" stroke="#3C3939" stroke-width="2" stroke-miterlimit="10" stroke-linecap="square"/>
<path d="M4.84705 30.6562C6.71101 30.6562 8.22205 29.1452 8.22205 27.2812C8.22205 25.4173 6.71101 23.9062 4.84705 23.9062C2.98308 23.9062 1.47205 25.4173 1.47205 27.2812C1.47205 29.1452 2.98308 30.6562 4.84705 30.6562Z" stroke="#3C3939" stroke-width="2" stroke-miterlimit="10" stroke-linecap="square"/>
<path d="M31.1529 30.6562C33.0169 30.6562 34.5279 29.1452 34.5279 27.2812C34.5279 25.4173 33.0169 23.9062 31.1529 23.9062C29.2889 23.9062 27.7779 25.4173 27.7779 27.2812C27.7779 29.1452 29.2889 30.6562 31.1529 30.6562Z" stroke="#3C3939" stroke-width="2" stroke-miterlimit="10" stroke-linecap="square"/>
</g>
<defs>
<clipPath id="clip0_9_208">
<rect width="36" height="36" fill="white"/>
</clipPath>
</defs>
</svg>
